<?xml version="1.0" encoding="UTF-8"?>
<svg xmlns="http://www.w3.org/2000/svg" xmlns:xlink="http://www.w3.org/1999/xlink" width="161px" height="54px" viewBox="0 0 162 54" version="1.1">
<g id="surface1">
<path style=" stroke:none;fill-rule:nonzero;fill:rgb(65.098039%,65.098039%,65.098039%);fill-opacity:1;" d="M 148.683594 0 L 12.871094 0 C 12.375 0 11.886719 0 11.394531 0.00390625 C 10.980469 0.00390625 10.570312 0.0117188 10.152344 0.0195312 C 9.246094 0.03125 8.34375 0.109375 7.449219 0.257812 C 6.554688 0.410156 5.691406 0.695312 4.882812 1.105469 C 4.074219 1.519531 3.335938 2.054688 2.695312 2.695312 C 2.050781 3.335938 1.515625 4.074219 1.105469 4.882812 C 0.695312 5.691406 0.410156 6.558594 0.261719 7.453125 C 0.113281 8.347656 0.03125 9.25 0.0195312 10.15625 C 0.0078125 10.570312 0.0078125 10.984375 0 11.398438 L 0 42.605469 C 0.0078125 43.023438 0.0078125 43.429688 0.0195312 43.847656 C 0.03125 44.753906 0.113281 45.65625 0.261719 46.550781 C 0.410156 47.445312 0.695312 48.3125 1.105469 49.121094 C 1.515625 49.929688 2.050781 50.664062 2.695312 51.300781 C 3.335938 51.945312 4.074219 52.484375 4.882812 52.894531 C 5.691406 53.304688 6.554688 53.589844 7.449219 53.746094 C 8.34375 53.890625 9.246094 53.972656 10.152344 53.984375 C 10.570312 53.992188 10.980469 53.996094 11.394531 53.996094 C 11.886719 54 12.375 54 12.871094 54 L 148.683594 54 C 149.167969 54 149.660156 54 150.144531 53.996094 C 150.558594 53.996094 150.980469 53.992188 151.390625 53.984375 C 152.292969 53.972656 153.195312 53.890625 154.089844 53.746094 C 154.984375 53.589844 155.855469 53.300781 156.664062 52.894531 C 157.472656 52.480469 158.210938 51.945312 158.847656 51.300781 C 159.492188 50.664062 160.03125 49.925781 160.445312 49.121094 C 160.851562 48.3125 161.132812 47.445312 161.28125 46.550781 C 161.429688 45.65625 161.515625 44.753906 161.53125 43.847656 C 161.535156 43.429688 161.535156 43.023438 161.535156 42.605469 C 161.546875 42.113281 161.546875 41.625 161.546875 41.128906 L 161.546875 12.875 C 161.546875 12.378906 161.546875 11.890625 161.535156 11.398438 C 161.535156 10.984375 161.535156 10.570312 161.53125 10.15625 C 161.515625 9.25 161.429688 8.347656 161.28125 7.453125 C 161.132812 6.558594 160.851562 5.695312 160.445312 4.882812 C 159.609375 3.261719 158.289062 1.9375 156.664062 1.105469 C 155.855469 0.695312 154.984375 0.410156 154.089844 0.257812 C 153.199219 0.109375 152.292969 0.03125 151.390625 0.0195312 C 150.980469 0.0117188 150.558594 0.00390625 150.144531 0.00390625 C 149.660156 0 149.167969 0 148.683594 0 Z M 148.683594 0 "/>
<path style=" stroke:none;fill-rule:nonzero;fill:rgb(0%,0%,0%);fill-opacity:1;" d="M 11.402344 52.820312 C 10.988281 52.820312 10.585938 52.8125 10.179688 52.804688 C 9.335938 52.792969 8.492188 52.71875 7.65625 52.585938 C 6.878906 52.449219 6.125 52.199219 5.417969 51.84375 C 4.722656 51.492188 4.085938 51.027344 3.535156 50.472656 C 2.976562 49.921875 2.507812 49.285156 2.15625 48.585938 C 1.800781 47.882812 1.550781 47.128906 1.421875 46.347656 C 1.285156 45.511719 1.210938 44.667969 1.199219 43.816406 C 1.191406 43.535156 1.179688 42.585938 1.179688 42.585938 L 1.179688 11.398438 C 1.179688 11.398438 1.191406 10.464844 1.199219 10.191406 C 1.207031 9.34375 1.285156 8.5 1.421875 7.664062 C 1.550781 6.882812 1.796875 6.128906 2.15625 5.421875 C 2.507812 4.722656 2.96875 4.085938 3.527344 3.535156 C 4.082031 2.976562 4.71875 2.511719 5.417969 2.152344 C 6.121094 1.796875 6.875 1.550781 7.652344 1.417969 C 8.488281 1.28125 9.335938 1.207031 10.183594 1.199219 L 11.402344 1.179688 L 150.140625 1.179688 L 151.371094 1.199219 C 152.210938 1.207031 153.050781 1.28125 153.878906 1.417969 C 154.664062 1.550781 155.425781 1.800781 156.136719 2.15625 C 157.535156 2.878906 158.675781 4.023438 159.394531 5.425781 C 159.746094 6.125 159.992188 6.875 160.117188 7.652344 C 160.257812 8.492188 160.335938 9.34375 160.351562 10.199219 C 160.355469 10.582031 160.355469 10.992188 160.355469 11.398438 C 160.367188 11.90625 160.367188 12.386719 160.367188 12.875 L 160.367188 41.128906 C 160.367188 41.617188 160.367188 42.097656 160.355469 42.578125 C 160.355469 43.019531 160.355469 43.421875 160.351562 43.835938 C 160.335938 44.671875 160.257812 45.507812 160.121094 46.335938 C 159.996094 47.121094 159.75 47.882812 159.390625 48.589844 C 159.035156 49.28125 158.574219 49.914062 158.019531 50.460938 C 157.46875 51.019531 156.832031 51.484375 156.132812 51.84375 C 155.421875 52.199219 154.664062 52.453125 153.878906 52.585938 C 153.046875 52.71875 152.203125 52.792969 151.355469 52.804688 C 150.960938 52.8125 150.546875 52.820312 150.144531 52.820312 Z M 11.402344 52.820312 "/>
<path style=" stroke:none;fill-rule:nonzero;fill:rgb(100%,100%,100%);fill-opacity:1;" d="M 33.4375 27.40625 C 33.46875 25.117188 34.667969 23 36.621094 21.800781 C 35.382812 20.035156 33.386719 18.957031 31.230469 18.886719 C 28.964844 18.648438 26.765625 20.246094 25.613281 20.246094 C 24.433594 20.246094 22.65625 18.910156 20.738281 18.949219 C 18.21875 19.03125 15.925781 20.429688 14.703125 22.632812 C 12.089844 27.152344 14.039062 33.796875 16.539062 37.449219 C 17.789062 39.242188 19.253906 41.238281 21.167969 41.167969 C 23.039062 41.089844 23.738281 39.972656 26 39.972656 C 28.238281 39.972656 28.894531 41.167969 30.847656 41.121094 C 32.855469 41.089844 34.121094 39.324219 35.328125 37.519531 C 36.226562 36.246094 36.921875 34.835938 37.378906 33.34375 C 34.992188 32.335938 33.441406 29.996094 33.4375 27.40625 Z M 33.4375 27.40625 "/>
<path style=" stroke:none;fill-rule:nonzero;fill:rgb(100%,100%,100%);fill-opacity:1;" d="M 29.75 16.484375 C 30.847656 15.167969 31.386719 13.480469 31.253906 11.773438 C 29.582031 11.949219 28.035156 12.75 26.925781 14.011719 C 25.828125 15.261719 25.273438 16.894531 25.378906 18.550781 C 27.078125 18.566406 28.6875 17.808594 29.75 16.484375 Z M 29.75 16.484375 "/>
<path style=" stroke:none;fill-rule:nonzero;fill:rgb(100%,100%,100%);fill-opacity:1;" d="M 57.109375 36.636719 L 50.71875 36.636719 L 49.183594 41.167969 L 46.476562 41.167969 L 52.53125 24.40625 L 55.339844 24.40625 L 61.394531 41.167969 L 58.640625 41.167969 Z M 51.378906 34.546875 L 56.445312 34.546875 L 53.949219 27.195312 L 53.878906 27.195312 Z M 51.378906 34.546875 "/>
<path style=" stroke:none;fill-rule:nonzero;fill:rgb(100%,100%,100%);fill-opacity:1;" d="M 74.464844 35.058594 C 74.464844 38.855469 72.433594 41.296875 69.363281 41.296875 C 67.777344 41.378906 66.285156 40.550781 65.519531 39.160156 L 65.460938 39.160156 L 65.460938 45.214844 L 62.953125 45.214844 L 62.953125 28.945312 L 65.378906 28.945312 L 65.378906 30.980469 L 65.425781 30.980469 C 66.226562 29.597656 67.722656 28.769531 69.320312 28.820312 C 72.421875 28.820312 74.464844 31.269531 74.464844 35.058594 Z M 71.886719 35.058594 C 71.886719 32.585938 70.609375 30.957031 68.65625 30.957031 C 66.738281 30.957031 65.449219 32.617188 65.449219 35.058594 C 65.449219 37.523438 66.738281 39.171875 68.65625 39.171875 C 70.609375 39.171875 71.886719 37.554688 71.886719 35.058594 Z M 71.886719 35.058594 "/>
<path style=" stroke:none;fill-rule:nonzero;fill:rgb(100%,100%,100%);fill-opacity:1;" d="M 87.917969 35.058594 C 87.917969 38.855469 85.886719 41.296875 82.816406 41.296875 C 81.230469 41.378906 79.738281 40.550781 78.972656 39.160156 L 78.914062 39.160156 L 78.914062 45.214844 L 76.40625 45.214844 L 76.40625 28.945312 L 78.832031 28.945312 L 78.832031 30.980469 L 78.878906 30.980469 C 79.679688 29.597656 81.175781 28.769531 82.769531 28.820312 C 85.875 28.820312 87.917969 31.269531 87.917969 35.058594 Z M 85.339844 35.058594 C 85.339844 32.585938 84.0625 30.957031 82.109375 30.957031 C 80.191406 30.957031 78.902344 32.617188 78.902344 35.058594 C 78.902344 37.523438 80.191406 39.171875 82.109375 39.171875 C 84.0625 39.171875 85.339844 37.554688 85.339844 35.058594 Z M 85.339844 35.058594 "/>
<path style=" stroke:none;fill-rule:nonzero;fill:rgb(100%,100%,100%);fill-opacity:1;" d="M 96.808594 36.5 C 96.996094 38.160156 98.609375 39.253906 100.816406 39.253906 C 102.929688 39.253906 104.453125 38.160156 104.453125 36.664062 C 104.453125 35.359375 103.535156 34.582031 101.363281 34.046875 L 99.191406 33.523438 C 96.113281 32.78125 94.683594 31.339844 94.683594 29.003906 C 94.683594 26.113281 97.203125 24.125 100.78125 24.125 C 104.324219 24.125 106.753906 26.113281 106.835938 29.003906 L 104.300781 29.003906 C 104.152344 27.332031 102.769531 26.324219 100.746094 26.324219 C 98.726562 26.324219 97.34375 27.34375 97.34375 28.832031 C 97.34375 30.015625 98.226562 30.714844 100.386719 31.246094 L 102.234375 31.699219 C 105.671875 32.515625 107.101562 33.894531 107.101562 36.347656 C 107.101562 39.484375 104.605469 41.449219 100.632812 41.449219 C 96.914062 41.449219 94.402344 39.53125 94.242188 36.5 Z M 96.808594 36.5 "/>
<path style=" stroke:none;fill-rule:nonzero;fill:rgb(100%,100%,100%);fill-opacity:1;" d="M 112.515625 26.054688 L 112.515625 28.945312 L 114.839844 28.945312 L 114.839844 30.933594 L 112.515625 30.933594 L 112.515625 37.671875 C 112.515625 38.71875 112.984375 39.207031 114.003906 39.207031 C 114.28125 39.203125 114.554688 39.183594 114.828125 39.148438 L 114.828125 41.125 C 114.371094 41.210938 113.902344 41.25 113.4375 41.238281 C 110.960938 41.238281 109.996094 40.308594 109.996094 37.941406 L 109.996094 30.933594 L 108.21875 30.933594 L 108.21875 28.945312 L 109.996094 28.945312 L 109.996094 26.054688 Z M 112.515625 26.054688 "/>
<path style=" stroke:none;fill-rule:nonzero;fill:rgb(100%,100%,100%);fill-opacity:1;" d="M 116.1875 35.058594 C 116.1875 31.214844 118.453125 28.796875 121.984375 28.796875 C 125.527344 28.796875 127.78125 31.214844 127.78125 35.058594 C 127.78125 38.914062 125.539062 41.320312 121.984375 41.320312 C 118.429688 41.320312 116.1875 38.914062 116.1875 35.058594 Z M 125.226562 35.058594 C 125.226562 32.421875 124.015625 30.863281 121.984375 30.863281 C 119.953125 30.863281 118.742188 32.433594 118.742188 35.058594 C 118.742188 37.707031 119.953125 39.253906 121.984375 39.253906 C 124.015625 39.253906 125.226562 37.707031 125.226562 35.058594 Z M 125.226562 35.058594 "/>
<path style=" stroke:none;fill-rule:nonzero;fill:rgb(100%,100%,100%);fill-opacity:1;" d="M 129.851562 28.945312 L 132.242188 28.945312 L 132.242188 31.027344 L 132.300781 31.027344 C 132.636719 29.6875 133.863281 28.765625 135.242188 28.820312 C 135.53125 28.816406 135.820312 28.851562 136.101562 28.914062 L 136.101562 31.257812 C 135.738281 31.148438 135.355469 31.097656 134.972656 31.109375 C 134.238281 31.078125 133.523438 31.371094 133.019531 31.914062 C 132.519531 32.453125 132.277344 33.1875 132.359375 33.921875 L 132.359375 41.167969 L 129.851562 41.167969 Z M 129.851562 28.945312 "/>
<path style=" stroke:none;fill-rule:nonzero;fill:rgb(100%,100%,100%);fill-opacity:1;" d="M 147.667969 37.578125 C 147.332031 39.796875 145.171875 41.320312 142.40625 41.320312 C 138.851562 41.320312 136.644531 38.9375 136.644531 35.117188 C 136.644531 31.285156 138.863281 28.796875 142.300781 28.796875 C 145.683594 28.796875 147.808594 31.121094 147.808594 34.824219 L 147.808594 35.683594 L 139.175781 35.683594 L 139.175781 35.835938 C 139.09375 36.746094 139.410156 37.648438 140.039062 38.308594 C 140.667969 38.972656 141.550781 39.332031 142.464844 39.300781 C 143.679688 39.414062 144.828125 38.714844 145.285156 37.578125 Z M 139.1875 33.933594 L 145.296875 33.933594 C 145.34375 33.113281 145.046875 32.316406 144.476562 31.726562 C 143.90625 31.136719 143.121094 30.8125 142.300781 30.828125 C 141.476562 30.824219 140.683594 31.148438 140.097656 31.730469 C 139.511719 32.316406 139.1875 33.105469 139.1875 33.933594 Z M 139.1875 33.933594 "/>
<path style=" stroke:none;fill-rule:nonzero;fill:rgb(100%,100%,100%);fill-opacity:1;" d="M 51.066406 11.785156 C 52.128906 11.710938 53.171875 12.117188 53.90625 12.890625 C 54.640625 13.667969 54.988281 14.730469 54.855469 15.789062 C 54.855469 18.363281 53.464844 19.84375 51.066406 19.84375 L 48.15625 19.84375 L 48.15625 11.785156 Z M 49.40625 18.703125 L 50.925781 18.703125 C 51.6875 18.75 52.429688 18.449219 52.941406 17.886719 C 53.457031 17.324219 53.691406 16.558594 53.582031 15.804688 C 53.683594 15.054688 53.445312 14.296875 52.933594 13.738281 C 52.417969 13.183594 51.683594 12.882812 50.925781 12.925781 L 49.40625 12.925781 Z M 49.40625 18.703125 "/>
<path style=" stroke:none;fill-rule:nonzero;fill:rgb(100%,100%,100%);fill-opacity:1;" d="M 56.269531 16.800781 C 56.164062 15.710938 56.6875 14.65625 57.617188 14.078125 C 58.546875 13.5 59.722656 13.5 60.652344 14.078125 C 61.585938 14.65625 62.105469 15.710938 62.003906 16.800781 C 62.109375 17.890625 61.585938 18.945312 60.65625 19.527344 C 59.726562 20.105469 58.546875 20.105469 57.617188 19.527344 C 56.683594 18.945312 56.164062 17.890625 56.269531 16.800781 Z M 60.769531 16.800781 C 60.769531 15.480469 60.175781 14.710938 59.136719 14.710938 C 58.09375 14.710938 57.507812 15.480469 57.507812 16.800781 C 57.507812 18.128906 58.09375 18.894531 59.136719 18.894531 C 60.175781 18.894531 60.769531 18.121094 60.769531 16.800781 Z M 60.769531 16.800781 "/>
<path style=" stroke:none;fill-rule:nonzero;fill:rgb(100%,100%,100%);fill-opacity:1;" d="M 69.625 19.84375 L 68.378906 19.84375 L 67.121094 15.363281 L 67.027344 15.363281 L 65.777344 19.84375 L 64.542969 19.84375 L 62.867188 13.761719 L 64.085938 13.761719 L 65.175781 18.402344 L 65.265625 18.402344 L 66.515625 13.761719 L 67.664062 13.761719 L 68.914062 18.402344 L 69.007812 18.402344 L 70.09375 13.761719 L 71.292969 13.761719 Z M 69.625 19.84375 "/>
<path style=" stroke:none;fill-rule:nonzero;fill:rgb(100%,100%,100%);fill-opacity:1;" d="M 72.703125 13.761719 L 73.855469 13.761719 L 73.855469 14.730469 L 73.945312 14.730469 C 74.257812 14.019531 74.988281 13.582031 75.761719 13.644531 C 76.359375 13.601562 76.945312 13.832031 77.355469 14.269531 C 77.765625 14.710938 77.953125 15.3125 77.863281 15.90625 L 77.863281 19.84375 L 76.664062 19.84375 L 76.664062 16.207031 C 76.664062 15.230469 76.242188 14.746094 75.351562 14.746094 C 74.945312 14.726562 74.550781 14.886719 74.273438 15.183594 C 73.996094 15.476562 73.859375 15.882812 73.902344 16.285156 L 73.902344 19.84375 L 72.703125 19.84375 Z M 72.703125 13.761719 "/>
<path style=" stroke:none;fill-rule:nonzero;fill:rgb(100%,100%,100%);fill-opacity:1;" d="M 79.777344 11.390625 L 80.976562 11.390625 L 80.976562 19.84375 L 79.777344 19.84375 Z M 79.777344 11.390625 "/>
<path style=" stroke:none;fill-rule:nonzero;fill:rgb(100%,100%,100%);fill-opacity:1;" d="M 82.644531 16.800781 C 82.539062 15.710938 83.0625 14.65625 83.992188 14.078125 C 84.921875 13.5 86.097656 13.5 87.03125 14.078125 C 87.960938 14.65625 88.480469 15.710938 88.378906 16.800781 C 88.484375 17.890625 87.960938 18.945312 87.03125 19.527344 C 86.101562 20.105469 84.921875 20.105469 83.992188 19.527344 C 83.058594 18.945312 82.539062 17.890625 82.644531 16.800781 Z M 87.144531 16.800781 C 87.144531 15.480469 86.550781 14.710938 85.511719 14.710938 C 84.46875 14.710938 83.882812 15.480469 83.882812 16.800781 C 83.882812 18.128906 84.46875 18.894531 85.511719 18.894531 C 86.550781 18.894531 87.144531 18.121094 87.144531 16.800781 Z M 87.144531 16.800781 "/>
<path style=" stroke:none;fill-rule:nonzero;fill:rgb(100%,100%,100%);fill-opacity:1;" d="M 89.640625 18.121094 C 89.640625 17.027344 90.457031 16.398438 91.902344 16.308594 L 93.550781 16.214844 L 93.550781 15.6875 C 93.550781 15.046875 93.125 14.683594 92.304688 14.683594 C 91.632812 14.683594 91.171875 14.929688 91.039062 15.359375 L 89.875 15.359375 C 90 14.316406 90.980469 13.644531 92.359375 13.644531 C 93.882812 13.644531 94.742188 14.40625 94.742188 15.6875 L 94.742188 19.84375 L 93.589844 19.84375 L 93.589844 18.988281 L 93.492188 18.988281 C 93.101562 19.613281 92.402344 19.976562 91.667969 19.941406 C 91.152344 19.996094 90.636719 19.828125 90.25 19.480469 C 89.863281 19.136719 89.644531 18.640625 89.640625 18.121094 Z M 93.550781 17.601562 L 93.550781 17.09375 L 92.0625 17.191406 C 91.226562 17.246094 90.847656 17.53125 90.847656 18.066406 C 90.847656 18.613281 91.320312 18.933594 91.976562 18.933594 C 92.359375 18.972656 92.746094 18.851562 93.042969 18.601562 C 93.339844 18.351562 93.523438 17.992188 93.550781 17.601562 Z M 93.550781 17.601562 "/>
<path style=" stroke:none;fill-rule:nonzero;fill:rgb(100%,100%,100%);fill-opacity:1;" d="M 96.320312 16.800781 C 96.320312 14.878906 97.308594 13.664062 98.84375 13.664062 C 99.617188 13.625 100.34375 14.042969 100.707031 14.730469 L 100.796875 14.730469 L 100.796875 11.390625 L 101.996094 11.390625 L 101.996094 19.84375 L 100.847656 19.84375 L 100.847656 18.882812 L 100.753906 18.882812 C 100.363281 19.5625 99.628906 19.972656 98.84375 19.941406 C 97.296875 19.941406 96.320312 18.726562 96.320312 16.800781 Z M 97.558594 16.800781 C 97.558594 18.089844 98.167969 18.863281 99.183594 18.863281 C 100.195312 18.863281 100.820312 18.078125 100.820312 16.804688 C 100.820312 15.539062 100.1875 14.738281 99.183594 14.738281 C 98.171875 14.738281 97.558594 15.519531 97.558594 16.800781 Z M 97.558594 16.800781 "/>
<path style=" stroke:none;fill-rule:nonzero;fill:rgb(100%,100%,100%);fill-opacity:1;" d="M 106.960938 16.800781 C 106.855469 15.710938 107.378906 14.65625 108.308594 14.078125 C 109.238281 13.5 110.414062 13.5 111.347656 14.078125 C 112.277344 14.65625 112.796875 15.710938 112.695312 16.800781 C 112.800781 17.890625 112.277344 18.945312 111.347656 19.527344 C 110.417969 20.105469 109.238281 20.105469 108.308594 19.527344 C 107.375 18.945312 106.855469 17.890625 106.960938 16.800781 Z M 111.460938 16.800781 C 111.460938 15.480469 110.867188 14.710938 109.828125 14.710938 C 108.785156 14.710938 108.199219 15.480469 108.199219 16.800781 C 108.199219 18.128906 108.785156 18.894531 109.828125 18.894531 C 110.867188 18.894531 111.460938 18.121094 111.460938 16.800781 Z M 111.460938 16.800781 "/>
<path style=" stroke:none;fill-rule:nonzero;fill:rgb(100%,100%,100%);fill-opacity:1;" d="M 114.304688 13.761719 L 115.457031 13.761719 L 115.457031 14.730469 L 115.546875 14.730469 C 115.859375 14.019531 116.589844 13.582031 117.363281 13.644531 C 117.960938 13.601562 118.546875 13.832031 118.957031 14.269531 C 119.367188 14.710938 119.554688 15.3125 119.464844 15.90625 L 119.464844 19.84375 L 118.265625 19.84375 L 118.265625 16.207031 C 118.265625 15.230469 117.84375 14.746094 116.953125 14.746094 C 116.546875 14.726562 116.152344 14.886719 115.875 15.183594 C 115.597656 15.476562 115.460938 15.882812 115.503906 16.285156 L 115.503906 19.84375 L 114.304688 19.84375 Z M 114.304688 13.761719 "/>
<path style=" stroke:none;fill-rule:nonzero;fill:rgb(100%,100%,100%);fill-opacity:1;" d="M 126.246094 12.25 L 126.246094 13.789062 L 127.5625 13.789062 L 127.5625 14.800781 L 126.246094 14.800781 L 126.246094 17.925781 C 126.246094 18.5625 126.507812 18.84375 127.105469 18.84375 C 127.257812 18.84375 127.410156 18.832031 127.5625 18.816406 L 127.5625 19.8125 C 127.347656 19.851562 127.128906 19.875 126.910156 19.875 C 125.574219 19.875 125.042969 19.40625 125.042969 18.234375 L 125.042969 14.800781 L 124.078125 14.800781 L 124.078125 13.789062 L 125.042969 13.789062 L 125.042969 12.25 Z M 126.246094 12.25 "/>
<path style=" stroke:none;fill-rule:nonzero;fill:rgb(100%,100%,100%);fill-opacity:1;" d="M 129.203125 11.390625 L 130.390625 11.390625 L 130.390625 14.738281 L 130.484375 14.738281 C 130.8125 14.023438 131.554688 13.585938 132.339844 13.652344 C 132.933594 13.617188 133.515625 13.851562 133.917969 14.292969 C 134.324219 14.730469 134.511719 15.324219 134.433594 15.917969 L 134.433594 19.84375 L 133.230469 19.84375 L 133.230469 16.214844 C 133.230469 15.242188 132.777344 14.75 131.929688 14.75 C 131.515625 14.714844 131.101562 14.867188 130.808594 15.164062 C 130.511719 15.460938 130.363281 15.875 130.402344 16.292969 L 130.402344 19.84375 L 129.203125 19.84375 Z M 129.203125 11.390625 "/>
<path style=" stroke:none;fill-rule:nonzero;fill:rgb(100%,100%,100%);fill-opacity:1;" d="M 141.425781 18.199219 C 141.089844 19.347656 139.980469 20.089844 138.792969 19.960938 C 137.984375 19.980469 137.203125 19.644531 136.664062 19.039062 C 136.121094 18.4375 135.875 17.625 135.984375 16.820312 C 135.878906 16.015625 136.125 15.203125 136.664062 14.59375 C 137.199219 13.984375 137.976562 13.640625 138.789062 13.644531 C 140.480469 13.644531 141.5 14.800781 141.5 16.710938 L 141.5 17.128906 L 137.207031 17.128906 L 137.207031 17.195312 C 137.167969 17.648438 137.324219 18.09375 137.632812 18.425781 C 137.941406 18.757812 138.375 18.941406 138.828125 18.9375 C 139.414062 19.007812 139.984375 18.71875 140.273438 18.199219 Z M 137.207031 16.242188 L 140.277344 16.242188 C 140.308594 15.828125 140.164062 15.421875 139.878906 15.121094 C 139.59375 14.824219 139.195312 14.65625 138.78125 14.667969 C 138.363281 14.660156 137.957031 14.824219 137.664062 15.121094 C 137.367188 15.417969 137.203125 15.824219 137.207031 16.242188 Z M 137.207031 16.242188 "/>
</g>
</svg>
