<?xml version="1.0" encoding="UTF-8"?>
<svg xmlns="http://www.w3.org/2000/svg" xmlns:xlink="http://www.w3.org/1999/xlink" width="180px" height="54px" viewBox="0 0 180 54" version="1.1">
<g id="surface1">
<path style=" stroke:none;fill-rule:nonzero;fill:rgb(75.294118%,75.686275%,75.686275%);fill-opacity:1;" d="M 167.300781 0.00390625 L 12.699219 0.00390625 C 12.214844 0.00390625 11.726562 0.00390625 11.238281 0.00390625 C 10.835938 0.00390625 10.433594 0.00390625 10.011719 0.0234375 C 9.121094 0.0429688 8.234375 0.109375 7.34375 0.257812 C 6.457031 0.402344 5.628906 0.679688 4.804688 1.082031 C 4 1.484375 3.28125 2.011719 2.644531 2.648438 C 2.011719 3.28125 1.480469 4.003906 1.078125 4.808594 C 0.65625 5.609375 0.402344 6.457031 0.253906 7.347656 C 0.0859375 8.234375 0.0429688 9.125 0.0195312 10.015625 C 0 10.4375 0 10.839844 0 11.261719 C 0 11.75 0 12.238281 0 12.722656 L 0 41.296875 C 0 41.785156 0 42.273438 0 42.757812 C 0 43.183594 0 43.5625 0.0195312 43.984375 C 0.0429688 44.875 0.105469 45.765625 0.253906 46.652344 C 0.402344 47.542969 0.675781 48.390625 1.078125 49.191406 C 1.480469 49.996094 2.011719 50.71875 2.644531 51.351562 C 3.28125 51.988281 4 52.515625 4.804688 52.917969 C 5.609375 53.339844 6.457031 53.597656 7.34375 53.765625 C 8.234375 53.933594 9.121094 53.976562 10.011719 53.996094 C 10.414062 53.996094 10.835938 54.019531 11.238281 54.019531 C 11.726562 54.019531 12.214844 54.019531 12.699219 54.019531 L 167.300781 54.019531 C 167.785156 54.019531 168.273438 54.019531 168.738281 54.019531 C 169.140625 54.019531 169.566406 54.019531 169.96875 53.996094 C 170.855469 53.976562 171.746094 53.914062 172.632812 53.765625 C 173.523438 53.597656 174.347656 53.339844 175.175781 52.917969 C 175.976562 52.515625 176.699219 51.988281 177.332031 51.351562 C 177.96875 50.71875 178.496094 49.996094 178.898438 49.191406 C 179.300781 48.390625 179.578125 47.542969 179.726562 46.652344 C 179.894531 45.765625 179.9375 44.875 179.980469 43.984375 C 179.980469 43.5625 179.980469 43.183594 179.980469 42.757812 C 179.980469 42.273438 179.980469 41.785156 179.980469 41.296875 L 179.980469 12.703125 C 179.980469 12.214844 179.980469 11.726562 179.980469 11.242188 C 179.980469 10.839844 179.980469 10.417969 179.980469 10.015625 C 179.957031 9.125 179.894531 8.234375 179.726562 7.347656 C 179.578125 6.457031 179.300781 5.609375 178.898438 4.808594 C 178.496094 4.003906 177.96875 3.28125 177.332031 2.648438 C 176.699219 2.011719 175.976562 1.484375 175.175781 1.082031 C 174.347656 0.679688 173.523438 0.402344 172.632812 0.257812 C 171.765625 0.0859375 170.855469 0.0429688 169.96875 0.0234375 C 169.566406 0.0234375 169.140625 0.00390625 168.738281 0.00390625 C 168.273438 0.00390625 167.785156 0.00390625 167.300781 0.00390625 Z M 167.300781 0.00390625 "/>
<path style=" stroke:none;fill-rule:nonzero;fill:rgb(0%,0%,0%);fill-opacity:1;" d="M 11.261719 52.832031 C 10.859375 52.832031 10.457031 52.832031 10.054688 52.8125 C 9.3125 52.792969 8.425781 52.75 7.554688 52.601562 C 6.753906 52.453125 6.011719 52.21875 5.355469 51.882812 C 4.65625 51.519531 4.042969 51.078125 3.492188 50.527344 C 2.941406 49.976562 2.496094 49.363281 2.136719 48.664062 C 1.800781 47.988281 1.566406 47.265625 1.417969 46.460938 C 1.25 45.574219 1.207031 44.664062 1.207031 43.964844 C 1.207031 43.691406 1.183594 42.757812 1.183594 42.757812 L 1.183594 11.261719 C 1.183594 11.261719 1.207031 10.332031 1.207031 10.078125 C 1.226562 9.378906 1.269531 8.46875 1.417969 7.578125 C 1.566406 6.753906 1.800781 6.035156 2.136719 5.355469 C 2.496094 4.660156 2.941406 4.023438 3.492188 3.496094 C 4.042969 2.945312 4.679688 2.480469 5.355469 2.140625 C 6.03125 1.800781 6.753906 1.546875 7.554688 1.421875 C 8.445312 1.25 9.355469 1.230469 10.054688 1.207031 L 11.261719 1.1875 L 168.738281 1.1875 L 169.945312 1.207031 C 170.625 1.230469 171.535156 1.273438 172.421875 1.421875 C 173.226562 1.570312 173.945312 1.800781 174.644531 2.140625 C 175.320312 2.5 175.957031 2.945312 176.507812 3.496094 C 177.058594 4.042969 177.503906 4.660156 177.863281 5.355469 C 178.199219 6.035156 178.433594 6.753906 178.582031 7.558594 C 178.730469 8.40625 178.792969 9.273438 178.816406 10.078125 C 178.816406 10.457031 178.816406 10.859375 178.816406 11.261719 C 178.816406 11.769531 178.816406 12.238281 178.816406 12.722656 L 178.816406 41.296875 C 178.816406 41.785156 178.816406 42.25 178.816406 42.738281 C 178.816406 43.160156 178.816406 43.5625 178.816406 43.984375 C 178.792969 44.769531 178.730469 45.636719 178.582031 46.460938 C 178.433594 47.289062 178.199219 48.007812 177.863281 48.683594 C 177.503906 49.382812 177.035156 49.996094 176.507812 50.527344 C 175.957031 51.078125 175.320312 51.542969 174.644531 51.882812 C 173.945312 52.242188 173.246094 52.472656 172.421875 52.621094 C 171.574219 52.769531 170.6875 52.8125 169.925781 52.832031 C 169.542969 52.832031 169.121094 52.855469 168.738281 52.855469 L 167.300781 52.855469 Z M 11.261719 52.832031 "/>
<path style=" stroke:none;fill-rule:nonzero;fill:rgb(100%,100%,100%);fill-opacity:1;" d="M 66.757812 36.492188 L 60.515625 36.492188 L 58.992188 40.664062 L 56.238281 40.664062 L 62.355469 25.0625 L 64.960938 25.0625 L 71.226562 40.664062 L 68.347656 40.664062 Z M 61.296875 34.375 L 65.953125 34.375 L 64.28125 29.910156 C 64.050781 29.296875 63.816406 28.621094 63.605469 27.855469 C 63.394531 28.511719 63.183594 29.191406 62.949219 29.890625 Z M 61.296875 34.375 "/>
<path style=" stroke:none;fill-rule:nonzero;fill:rgb(100%,100%,100%);fill-opacity:1;" d="M 72.453125 31.898438 C 72.453125 31.03125 72.433594 30.101562 72.367188 29.0625 L 74.867188 29.0625 C 74.949219 29.550781 75.015625 30.039062 75.054688 30.546875 C 76.09375 29.421875 77.277344 28.851562 78.613281 28.851562 C 79.394531 28.851562 80.117188 29.042969 80.769531 29.445312 C 81.425781 29.824219 81.957031 30.460938 82.378906 31.308594 C 82.78125 32.152344 82.992188 33.234375 82.992188 34.523438 C 82.992188 35.878906 82.761719 37.042969 82.296875 37.996094 C 81.828125 38.949219 81.195312 39.6875 80.347656 40.175781 C 79.523438 40.664062 78.550781 40.917969 77.46875 40.917969 C 76.6875 40.917969 75.902344 40.789062 75.140625 40.515625 L 75.140625 45.296875 L 72.472656 45.53125 L 72.472656 31.898438 Z M 79.4375 37.847656 C 79.988281 37.128906 80.242188 36.046875 80.242188 34.652344 C 80.242188 33.359375 80.007812 32.40625 79.566406 31.816406 C 79.121094 31.222656 78.527344 30.949219 77.765625 30.949219 C 77.257812 30.949219 76.769531 31.074219 76.328125 31.308594 C 75.882812 31.5625 75.480469 31.878906 75.078125 32.28125 L 75.078125 38.503906 C 75.351562 38.632812 75.648438 38.738281 76.007812 38.820312 C 76.367188 38.90625 76.707031 38.925781 77.046875 38.925781 C 78.105469 38.925781 78.886719 38.566406 79.4375 37.847656 Z M 79.4375 37.847656 "/>
<path style=" stroke:none;fill-rule:nonzero;fill:rgb(100%,100%,100%);fill-opacity:1;" d="M 84.667969 31.898438 C 84.667969 31.03125 84.644531 30.101562 84.582031 29.0625 L 87.078125 29.0625 C 87.164062 29.550781 87.226562 30.039062 87.269531 30.546875 C 88.308594 29.421875 89.492188 28.851562 90.824219 28.851562 C 91.609375 28.851562 92.328125 29.042969 92.984375 29.445312 C 93.640625 29.824219 94.167969 30.460938 94.59375 31.308594 C 94.996094 32.152344 95.207031 33.234375 95.207031 34.523438 C 95.207031 35.878906 94.972656 37.042969 94.507812 37.996094 C 94.042969 38.949219 93.40625 39.6875 92.5625 40.175781 C 91.734375 40.664062 90.761719 40.917969 89.683594 40.917969 C 88.898438 40.917969 88.117188 40.789062 87.355469 40.515625 L 87.355469 45.296875 L 84.6875 45.53125 L 84.6875 31.898438 Z M 91.671875 37.847656 C 92.222656 37.128906 92.476562 36.046875 92.476562 34.652344 C 92.476562 33.359375 92.242188 32.40625 91.800781 31.816406 C 91.355469 31.222656 90.761719 30.949219 90 30.949219 C 89.492188 30.949219 89.003906 31.074219 88.5625 31.308594 C 88.117188 31.5625 87.714844 31.878906 87.3125 32.28125 L 87.3125 38.503906 C 87.585938 38.632812 87.882812 38.738281 88.242188 38.820312 C 88.601562 38.90625 88.941406 38.925781 89.28125 38.925781 C 90.339844 38.925781 91.121094 38.566406 91.671875 37.847656 Z M 91.671875 37.847656 "/>
<path style=" stroke:none;fill-rule:nonzero;fill:rgb(100%,100%,100%);fill-opacity:1;" d="M 100.203125 39.941406 C 99.058594 39.308594 98.171875 38.398438 97.554688 37.210938 C 96.941406 36.027344 96.625 34.628906 96.625 33.023438 C 96.625 31.265625 96.984375 29.785156 97.683594 28.554688 C 98.402344 27.328125 99.355469 26.417969 100.582031 25.804688 C 101.8125 25.191406 103.1875 24.871094 104.710938 24.871094 C 105.601562 24.871094 106.46875 24.980469 107.273438 25.167969 C 108.097656 25.359375 108.839844 25.632812 109.558594 25.972656 L 108.878906 28.027344 C 107.460938 27.347656 106.109375 27.011719 104.835938 27.011719 C 103.757812 27.011719 102.804688 27.242188 101.980469 27.710938 C 101.15625 28.175781 100.539062 28.851562 100.074219 29.742188 C 99.628906 30.628906 99.398438 31.730469 99.398438 33 C 99.398438 34.121094 99.566406 35.097656 99.925781 35.964844 C 100.265625 36.832031 100.816406 37.507812 101.578125 38.015625 C 102.320312 38.523438 103.269531 38.777344 104.414062 38.777344 C 104.921875 38.777344 105.453125 38.738281 105.960938 38.652344 C 106.46875 38.566406 106.953125 38.441406 107.421875 38.269531 L 107.421875 35.117188 L 103.820312 35.117188 L 103.820312 33.023438 L 110.023438 33.023438 L 110.023438 39.582031 C 109.132812 40.007812 108.203125 40.324219 107.207031 40.535156 C 106.234375 40.769531 105.261719 40.875 104.289062 40.875 C 102.722656 40.894531 101.367188 40.578125 100.203125 39.941406 Z M 100.203125 39.941406 "/>
<path style=" stroke:none;fill-rule:nonzero;fill:rgb(100%,100%,100%);fill-opacity:1;" d="M 119.589844 40.683594 C 119.507812 40.238281 119.441406 39.710938 119.398438 39.140625 C 119 39.625 118.449219 40.050781 117.792969 40.386719 C 117.136719 40.726562 116.394531 40.894531 115.570312 40.894531 C 114.890625 40.894531 114.300781 40.769531 113.75 40.492188 C 113.199219 40.238281 112.753906 39.835938 112.4375 39.308594 C 112.117188 38.777344 111.949219 38.144531 111.949219 37.382812 C 111.949219 36.261719 112.351562 35.351562 113.175781 34.695312 C 113.980469 34.015625 115.335938 33.679688 117.242188 33.679688 C 117.960938 33.679688 118.660156 33.71875 119.359375 33.828125 L 119.359375 33.59375 C 119.359375 32.554688 119.144531 31.835938 118.703125 31.414062 C 118.257812 30.988281 117.644531 30.777344 116.816406 30.777344 C 116.246094 30.777344 115.652344 30.863281 114.996094 31.03125 C 114.339844 31.203125 113.792969 31.390625 113.304688 31.625 L 112.882812 29.675781 C 113.347656 29.464844 113.980469 29.253906 114.765625 29.085938 C 115.546875 28.914062 116.351562 28.808594 117.21875 28.808594 C 118.214844 28.808594 119.082031 28.957031 119.78125 29.277344 C 120.480469 29.570312 121.03125 30.101562 121.433594 30.839844 C 121.835938 31.582031 122.023438 32.578125 122.023438 33.847656 L 122.023438 38.460938 C 122.023438 38.949219 122.046875 39.667969 122.109375 40.640625 L 119.589844 40.640625 Z M 118.003906 38.523438 C 118.554688 38.25 119.019531 37.933594 119.359375 37.53125 L 119.359375 35.371094 C 118.636719 35.285156 118.046875 35.246094 117.578125 35.246094 C 116.480469 35.246094 115.71875 35.414062 115.292969 35.773438 C 114.871094 36.132812 114.660156 36.597656 114.660156 37.210938 C 114.660156 37.785156 114.808594 38.207031 115.125 38.484375 C 115.421875 38.757812 115.84375 38.90625 116.375 38.90625 C 116.902344 38.925781 117.453125 38.777344 118.003906 38.523438 Z M 118.003906 38.523438 "/>
<path style=" stroke:none;fill-rule:nonzero;fill:rgb(100%,100%,100%);fill-opacity:1;" d="M 124.332031 37.890625 L 124.332031 24.152344 L 126.976562 23.941406 L 126.976562 37.425781 C 126.976562 37.910156 127.0625 38.269531 127.230469 38.484375 C 127.402344 38.695312 127.675781 38.800781 128.035156 38.800781 C 128.207031 38.800781 128.4375 38.757812 128.734375 38.671875 L 129.050781 40.578125 C 128.796875 40.683594 128.5 40.769531 128.121094 40.8125 C 127.761719 40.875 127.421875 40.894531 127.082031 40.894531 C 125.261719 40.894531 124.332031 39.902344 124.332031 37.890625 Z M 124.332031 37.890625 "/>
<path style=" stroke:none;fill-rule:nonzero;fill:rgb(100%,100%,100%);fill-opacity:1;" d="M 130.957031 37.890625 L 130.957031 24.152344 L 133.601562 23.941406 L 133.601562 37.425781 C 133.601562 37.910156 133.6875 38.269531 133.855469 38.484375 C 134.027344 38.695312 134.300781 38.800781 134.660156 38.800781 C 134.832031 38.800781 135.0625 38.757812 135.359375 38.671875 L 135.675781 40.578125 C 135.421875 40.683594 135.128906 40.769531 134.746094 40.8125 C 134.386719 40.875 134.046875 40.894531 133.707031 40.894531 C 131.886719 40.894531 130.957031 39.902344 130.957031 37.890625 Z M 130.957031 37.890625 "/>
<path style=" stroke:none;fill-rule:nonzero;fill:rgb(100%,100%,100%);fill-opacity:1;" d="M 146.707031 35.203125 L 139.105469 35.203125 C 139.234375 37.636719 140.398438 38.84375 142.578125 38.84375 C 143.128906 38.84375 143.679688 38.777344 144.25 38.652344 C 144.820312 38.523438 145.371094 38.335938 145.902344 38.121094 L 146.472656 39.941406 C 145.179688 40.578125 143.71875 40.894531 142.089844 40.894531 C 140.863281 40.894531 139.804688 40.664062 138.957031 40.199219 C 138.113281 39.730469 137.476562 39.054688 137.054688 38.1875 C 136.628906 37.320312 136.417969 36.261719 136.417969 35.011719 C 136.417969 33.71875 136.652344 32.621094 137.09375 31.6875 C 137.539062 30.757812 138.175781 30.058594 138.980469 29.570312 C 139.785156 29.085938 140.714844 28.832031 141.773438 28.832031 C 142.875 28.832031 143.785156 29.085938 144.523438 29.59375 C 145.265625 30.101562 145.816406 30.800781 146.15625 31.644531 C 146.515625 32.492188 146.683594 33.445312 146.683594 34.480469 L 146.683594 35.203125 Z M 144.101562 33.507812 C 144.058594 32.578125 143.828125 31.878906 143.402344 31.433594 C 142.980469 30.96875 142.429688 30.734375 141.730469 30.734375 C 141.054688 30.734375 140.503906 30.96875 140.039062 31.433594 C 139.59375 31.898438 139.296875 32.597656 139.167969 33.507812 Z M 144.101562 33.507812 "/>
<path style=" stroke:none;fill-rule:nonzero;fill:rgb(100%,100%,100%);fill-opacity:1;" d="M 148.84375 31.984375 C 148.84375 31.351562 148.820312 30.375 148.757812 29.0625 L 151.257812 29.0625 C 151.296875 29.382812 151.339844 29.785156 151.382812 30.226562 C 151.425781 30.671875 151.445312 31.03125 151.46875 31.328125 C 151.785156 30.820312 152.082031 30.398438 152.378906 30.039062 C 152.675781 29.675781 153.035156 29.402344 153.414062 29.191406 C 153.816406 28.980469 154.261719 28.851562 154.769531 28.851562 C 155.171875 28.851562 155.53125 28.894531 155.828125 28.980469 L 155.488281 31.285156 C 155.234375 31.203125 154.9375 31.160156 154.621094 31.160156 C 153.988281 31.160156 153.457031 31.328125 152.992188 31.644531 C 152.527344 31.964844 152.019531 32.492188 151.488281 33.234375 L 151.488281 40.707031 L 148.84375 40.707031 Z M 148.84375 31.984375 "/>
<path style=" stroke:none;fill-rule:nonzero;fill:rgb(100%,100%,100%);fill-opacity:1;" d="M 157.414062 45.425781 C 157.035156 45.363281 156.71875 45.277344 156.460938 45.191406 L 156.949219 43.246094 C 157.117188 43.289062 157.351562 43.351562 157.628906 43.394531 C 157.902344 43.4375 158.15625 43.457031 158.410156 43.457031 C 159.59375 43.457031 160.464844 42.695312 161.054688 41.191406 L 161.226562 40.769531 L 156.949219 29.042969 L 159.808594 29.042969 L 161.964844 35.582031 C 162.324219 36.703125 162.539062 37.550781 162.644531 38.164062 C 162.855469 37.320312 163.089844 36.492188 163.363281 35.648438 L 165.542969 29.042969 L 168.230469 29.042969 L 163.957031 40.8125 C 163.554688 41.933594 163.109375 42.820312 162.644531 43.5 C 162.179688 44.175781 161.628906 44.683594 160.992188 45.023438 C 160.359375 45.363281 159.59375 45.511719 158.683594 45.511719 C 158.21875 45.53125 157.816406 45.511719 157.414062 45.425781 Z M 157.414062 45.425781 "/>
<path style=" stroke:none;fill-rule:nonzero;fill:rgb(100%,100%,100%);fill-opacity:1;" d="M 56.21875 9.886719 L 61.023438 9.886719 L 60.894531 11.050781 L 57.636719 11.050781 L 57.636719 13.292969 L 60.707031 13.292969 L 60.707031 14.375 L 57.636719 14.375 L 57.636719 16.851562 L 61.066406 16.851562 L 60.9375 18.015625 L 56.21875 18.015625 Z M 56.21875 9.886719 "/>
<path style=" stroke:none;fill-rule:nonzero;fill:rgb(100%,100%,100%);fill-opacity:1;" d="M 64.324219 13.886719 L 61.785156 9.90625 L 63.371094 9.90625 L 65.085938 12.828125 L 66.886719 9.90625 L 68.429688 9.90625 L 65.914062 13.84375 L 68.621094 18.058594 L 66.992188 18.058594 L 65.042969 14.859375 L 63.078125 18.058594 L 61.59375 18.058594 Z M 64.324219 13.886719 "/>
<path style=" stroke:none;fill-rule:nonzero;fill:rgb(100%,100%,100%);fill-opacity:1;" d="M 69.703125 9.886719 L 71.902344 9.886719 C 72.941406 9.886719 73.722656 10.097656 74.273438 10.523438 C 74.824219 10.945312 75.097656 11.558594 75.097656 12.34375 C 75.097656 12.890625 74.972656 13.359375 74.738281 13.761719 C 74.484375 14.164062 74.144531 14.480469 73.703125 14.691406 C 73.257812 14.902344 72.75 15.007812 72.199219 15.007812 C 71.882812 15.007812 71.523438 14.96875 71.140625 14.902344 L 71.140625 18.035156 L 69.742188 18.035156 L 69.742188 9.886719 Z M 73.234375 13.527344 C 73.53125 13.253906 73.679688 12.871094 73.679688 12.382812 C 73.679688 11.875 73.53125 11.515625 73.214844 11.304688 C 72.917969 11.09375 72.453125 10.964844 71.859375 10.964844 L 71.121094 10.964844 L 71.121094 13.867188 C 71.480469 13.929688 71.734375 13.949219 71.921875 13.949219 C 72.496094 13.929688 72.941406 13.800781 73.234375 13.527344 Z M 73.234375 13.527344 "/>
<path style=" stroke:none;fill-rule:nonzero;fill:rgb(100%,100%,100%);fill-opacity:1;" d="M 76.472656 9.886719 L 77.871094 9.886719 L 77.871094 16.828125 L 81.238281 16.828125 L 81.109375 18.035156 L 76.453125 18.035156 L 76.453125 9.886719 Z M 76.472656 9.886719 "/>
<path style=" stroke:none;fill-rule:nonzero;fill:rgb(100%,100%,100%);fill-opacity:1;" d="M 83.394531 17.632812 C 82.804688 17.296875 82.335938 16.808594 82.019531 16.195312 C 81.703125 15.582031 81.554688 14.859375 81.554688 14.035156 C 81.554688 13.167969 81.722656 12.425781 82.0625 11.792969 C 82.402344 11.15625 82.886719 10.648438 83.523438 10.308594 C 84.15625 9.949219 84.898438 9.78125 85.765625 9.78125 C 86.59375 9.78125 87.289062 9.949219 87.882812 10.289062 C 88.476562 10.628906 88.921875 11.113281 89.238281 11.726562 C 89.554688 12.34375 89.703125 13.0625 89.703125 13.867188 C 89.703125 14.734375 89.535156 15.496094 89.195312 16.152344 C 88.855469 16.789062 88.371094 17.296875 87.734375 17.632812 C 87.101562 17.972656 86.359375 18.164062 85.511719 18.164062 C 84.6875 18.140625 83.988281 17.972656 83.394531 17.632812 Z M 87.035156 16.640625 C 87.4375 16.386719 87.734375 16.003906 87.925781 15.539062 C 88.117188 15.074219 88.222656 14.542969 88.222656 13.949219 C 88.222656 13.359375 88.136719 12.851562 87.96875 12.382812 C 87.796875 11.917969 87.523438 11.558594 87.140625 11.285156 C 86.761719 11.007812 86.273438 10.882812 85.683594 10.882812 C 85.109375 10.882812 84.625 11.03125 84.222656 11.304688 C 83.820312 11.582031 83.523438 11.941406 83.332031 12.40625 C 83.140625 12.871094 83.035156 13.378906 83.035156 13.929688 C 83.035156 14.523438 83.121094 15.050781 83.3125 15.515625 C 83.5 15.984375 83.777344 16.34375 84.179688 16.617188 C 84.558594 16.894531 85.046875 17.019531 85.617188 17.019531 C 86.167969 17.042969 86.632812 16.894531 87.035156 16.640625 Z M 87.035156 16.640625 "/>
<path style=" stroke:none;fill-rule:nonzero;fill:rgb(100%,100%,100%);fill-opacity:1;" d="M 91.25 9.886719 L 93.789062 9.886719 C 94.71875 9.886719 95.417969 10.078125 95.90625 10.4375 C 96.390625 10.816406 96.625 11.347656 96.625 12.023438 C 96.625 12.449219 96.539062 12.828125 96.371094 13.167969 C 96.203125 13.507812 95.988281 13.761719 95.734375 13.972656 C 95.480469 14.183594 95.226562 14.332031 94.953125 14.4375 L 97.449219 18.035156 L 95.820312 18.035156 L 93.703125 14.796875 L 92.667969 14.796875 L 92.667969 18.035156 L 91.269531 18.035156 L 91.269531 9.886719 Z M 93.449219 13.738281 C 93.789062 13.738281 94.085938 13.675781 94.359375 13.546875 C 94.613281 13.421875 94.824219 13.230469 94.972656 12.976562 C 95.121094 12.746094 95.1875 12.449219 95.1875 12.128906 C 95.1875 11.726562 95.058594 11.433594 94.804688 11.242188 C 94.550781 11.050781 94.167969 10.964844 93.683594 10.964844 L 92.667969 10.964844 L 92.667969 13.761719 L 93.449219 13.761719 Z M 93.449219 13.738281 "/>
<path style=" stroke:none;fill-rule:nonzero;fill:rgb(100%,100%,100%);fill-opacity:1;" d="M 98.550781 9.886719 L 103.355469 9.886719 L 103.230469 11.050781 L 99.96875 11.050781 L 99.96875 13.292969 L 103.039062 13.292969 L 103.039062 14.375 L 99.96875 14.375 L 99.96875 16.851562 L 103.398438 16.851562 L 103.269531 18.015625 L 98.550781 18.015625 Z M 98.550781 9.886719 "/>
<path style=" stroke:none;fill-rule:nonzero;fill:rgb(100%,100%,100%);fill-opacity:1;" d="M 108.585938 9.886719 L 109.980469 9.886719 L 109.980469 18.035156 L 108.585938 18.035156 Z M 108.585938 9.886719 "/>
<path style=" stroke:none;fill-rule:nonzero;fill:rgb(100%,100%,100%);fill-opacity:1;" d="M 113.707031 11.070312 L 111.1875 11.070312 L 111.316406 9.886719 L 117.644531 9.886719 L 117.515625 11.070312 L 115.125 11.070312 L 115.125 18.035156 L 113.726562 18.035156 L 113.726562 11.070312 Z M 113.707031 11.070312 "/>
<path style=" stroke:none;fill-rule:nonzero;fill:rgb(100%,100%,100%);fill-opacity:1;" d="M 123.738281 17.632812 C 123.148438 17.296875 122.679688 16.808594 122.363281 16.195312 C 122.046875 15.582031 121.898438 14.859375 121.898438 14.035156 C 121.898438 13.167969 122.066406 12.425781 122.40625 11.792969 C 122.746094 11.15625 123.230469 10.648438 123.867188 10.308594 C 124.5 9.949219 125.242188 9.78125 126.109375 9.78125 C 126.9375 9.78125 127.632812 9.949219 128.226562 10.289062 C 128.820312 10.628906 129.265625 11.113281 129.582031 11.726562 C 129.898438 12.34375 130.046875 13.0625 130.046875 13.867188 C 130.046875 14.734375 129.878906 15.496094 129.539062 16.152344 C 129.199219 16.789062 128.714844 17.296875 128.078125 17.632812 C 127.445312 17.972656 126.703125 18.164062 125.855469 18.164062 C 125.050781 18.140625 124.332031 17.972656 123.738281 17.632812 Z M 127.378906 16.640625 C 127.78125 16.386719 128.078125 16.003906 128.269531 15.539062 C 128.460938 15.074219 128.566406 14.542969 128.566406 13.949219 C 128.566406 13.359375 128.480469 12.851562 128.3125 12.382812 C 128.140625 11.917969 127.867188 11.558594 127.484375 11.285156 C 127.105469 11.007812 126.617188 10.882812 126.027344 10.882812 C 125.453125 10.882812 124.96875 11.03125 124.566406 11.304688 C 124.164062 11.582031 123.867188 11.941406 123.675781 12.40625 C 123.484375 12.871094 123.378906 13.378906 123.378906 13.929688 C 123.378906 14.523438 123.464844 15.050781 123.65625 15.515625 C 123.84375 15.984375 124.121094 16.34375 124.523438 16.617188 C 124.902344 16.894531 125.390625 17.019531 125.960938 17.019531 C 126.511719 17.042969 127 16.894531 127.378906 16.640625 Z M 127.378906 16.640625 "/>
<path style=" stroke:none;fill-rule:nonzero;fill:rgb(100%,100%,100%);fill-opacity:1;" d="M 131.59375 9.886719 L 133.199219 9.886719 L 137.222656 16.195312 C 137.179688 15.601562 137.179688 15.050781 137.179688 14.542969 L 137.179688 9.886719 L 138.492188 9.886719 L 138.492188 18.035156 L 136.925781 18.035156 L 132.839844 11.621094 C 132.882812 12.34375 132.90625 13 132.90625 13.546875 L 132.90625 18.035156 L 131.59375 18.035156 Z M 131.59375 9.886719 "/>
<path style=" stroke:none;fill-rule:evenodd;fill:rgb(78.431373%,6.27451%,18.039216%);fill-opacity:1;" d="M 36.46875 9.824219 L 21.441406 9.824219 C 14.371094 9.824219 11.769531 12.40625 11.769531 19.496094 L 11.769531 34.523438 C 11.769531 41.59375 14.351562 44.199219 21.441406 44.199219 L 36.46875 44.199219 C 43.539062 44.199219 46.144531 41.617188 46.144531 34.523438 L 46.144531 19.496094 C 46.144531 12.40625 43.5625 9.824219 36.46875 9.824219 Z M 36.46875 9.824219 "/>
<path style=" stroke:none;fill-rule:nonzero;fill:rgb(100%,100%,100%);fill-opacity:1;" d="M 18.605469 27.011719 L 19.515625 27.011719 L 19.515625 31.496094 L 18.605469 31.496094 L 18.605469 29.675781 L 16.550781 29.675781 L 16.550781 31.496094 L 15.640625 31.496094 L 15.640625 27.011719 L 16.550781 27.011719 L 16.550781 28.832031 L 18.605469 28.832031 Z M 23.726562 29.570312 C 23.726562 30.292969 23.367188 30.695312 22.710938 30.695312 C 22.054688 30.695312 21.675781 30.292969 21.675781 29.550781 L 21.675781 27.011719 L 20.765625 27.011719 L 20.765625 29.570312 C 20.765625 30.839844 21.460938 31.5625 22.691406 31.5625 C 23.917969 31.5625 24.636719 30.820312 24.636719 29.53125 L 24.636719 26.988281 L 23.726562 26.988281 Z M 34.269531 30.101562 L 33.253906 27.011719 L 32.511719 27.011719 L 31.496094 30.101562 L 30.5 27.011719 L 29.527344 27.011719 L 31.09375 31.496094 L 31.855469 31.496094 L 32.871094 28.554688 L 33.886719 31.496094 L 34.648438 31.496094 L 36.214844 27.011719 L 35.261719 27.011719 Z M 37.824219 29.570312 L 39.476562 29.570312 L 39.476562 28.746094 L 37.824219 28.746094 L 37.824219 27.835938 L 40.238281 27.835938 L 40.238281 27.011719 L 36.9375 27.011719 L 36.9375 31.496094 L 40.320312 31.496094 L 40.320312 30.671875 L 37.824219 30.671875 Z M 41.421875 31.496094 L 42.3125 31.496094 L 42.3125 27.011719 L 41.421875 27.011719 Z M 26.4375 30.566406 L 26.035156 31.496094 L 25.101562 31.496094 L 27.070312 27.011719 L 27.875 27.011719 L 29.84375 31.496094 L 28.890625 31.496094 L 28.488281 30.566406 Z M 26.777344 29.742188 L 28.152344 29.742188 L 27.453125 28.132812 Z M 26.777344 29.742188 "/>
<path style=" stroke:none;fill-rule:nonzero;fill:rgb(100%,100%,100%);fill-opacity:1;" d="M 28.976562 21.296875 C 25.824219 21.296875 23.261719 18.734375 23.261719 15.582031 L 24.066406 15.582031 C 24.066406 18.289062 26.269531 20.492188 28.976562 20.492188 C 31.6875 20.492188 33.886719 18.289062 33.886719 15.582031 L 34.691406 15.582031 C 34.691406 18.714844 32.128906 21.296875 28.976562 21.296875 Z M 28.976562 21.296875 "/>
</g>
</svg>
