<?xml version="1.0" encoding="UTF-8"?>
<svg xmlns="http://www.w3.org/2000/svg" xmlns:xlink="http://www.w3.org/1999/xlink" width="45px" height="45px" viewBox="0 0 45 45" version="1.1">
<g id="surface1">
<path style=" stroke:none;fill-rule:nonzero;fill:#f4f4f4;fill-opacity:1;" d="M 43.867188 0.554688 C 44.578125 1.082031 45 1.925781 45 2.8125 L 45 32.34375 C 45 36.226562 41.21875 39.375 36.5625 39.375 C 31.90625 39.375 28.125 36.226562 28.125 32.34375 C 28.125 28.460938 31.90625 25.3125 36.5625 25.3125 C 37.546875 25.3125 38.496094 25.453125 39.375 25.71875 L 39.375 12.921875 L 16.875 19.671875 L 16.875 37.96875 C 16.875 41.851562 13.09375 45 8.4375 45 C 3.78125 45 0 41.851562 0 37.96875 C 0 34.085938 3.78125 30.9375 8.4375 30.9375 C 9.421875 30.9375 10.371094 31.078125 11.25 31.34375 L 11.25 11.25 C 11.25 10.011719 12.066406 8.914062 13.253906 8.550781 L 41.378906 0.113281 C 42.230469 -0.140625 43.15625 0.015625 43.867188 0.554688 Z M 43.867188 0.554688 "/>
</g>
</svg>
