<?xml version="1.0" encoding="UTF-8"?>
<svg xmlns="http://www.w3.org/2000/svg" xmlns:xlink="http://www.w3.org/1999/xlink" width="45px" height="40px" viewBox="0 0 45 40" version="1.1">
<g id="surface1">
<path style=" stroke:none;fill-rule:nonzero;fill:#f4f4f4;fill-opacity:1;" d="M 42.941406 9.695312 C 42.449219 7.847656 41.003906 6.390625 39.167969 5.898438 C 35.84375 5 22.5 5 22.5 5 C 22.5 5 9.15625 5 5.832031 5.898438 C 3.996094 6.390625 2.550781 7.847656 2.058594 9.695312 C 1.167969 13.042969 1.167969 20.03125 1.167969 20.03125 C 1.167969 20.03125 1.167969 27.019531 2.058594 30.367188 C 2.550781 32.214844 3.996094 33.609375 5.832031 34.101562 C 9.15625 35 22.5 35 22.5 35 C 22.5 35 35.84375 35 39.167969 34.101562 C 41.003906 33.609375 42.449219 32.214844 42.941406 30.367188 C 43.832031 27.019531 43.832031 20.03125 43.832031 20.03125 C 43.832031 20.03125 43.832031 13.042969 42.941406 9.695312 Z M 18.136719 26.375 L 18.136719 13.6875 L 29.289062 20.03125 Z M 18.136719 26.375 "/>
</g>
</svg>
